<?xml version="1.0" encoding="UTF-8"?>
<svg version="1.1" xmlns="http://www.w3.org/2000/svg" width="1876" height="1876">
<path d="M0 0 C1.92336107 0.66458963 3.84889071 1.32289356 5.77453613 1.98083496 C59.04702827 20.20834054 111.53157206 44.09664089 160.02746582 72.70056152 C161.89426498 73.78716647 163.76146192 74.87308828 165.62902832 75.95837402 C191.88405504 91.27757985 217.39597403 107.88493834 242.02746582 125.70056152 C242.79397461 126.25453613 243.5604834 126.80851074 244.35021973 127.37927246 C254.59399744 134.80482065 264.63093223 142.43323014 274.44494629 150.41784668 C276.66607493 152.2181876 278.91042952 153.98886586 281.15246582 155.76306152 C285.55456577 159.28182135 289.85456793 162.91343298 294.14343262 166.56848145 C297.54138019 169.46029872 300.98294003 172.28482026 304.46496582 175.07556152 C309.47921606 179.15147254 314.20788869 183.48908946 318.90612793 187.92077637 C321.8843903 190.72821571 324.89603644 193.47918539 327.98449707 196.16540527 C339.67510568 206.33820721 350.68615514 217.25965527 361.65246582 228.20056152 C362.16720459 228.7127121 362.68194336 229.22486267 363.21228027 229.75253296 C368.50290307 235.02212935 373.72584742 240.31045414 378.55432129 246.01306152 C380.1378176 247.82697045 381.80860141 249.51508043 383.52746582 251.20056152 C386.56341507 254.18928489 389.37255241 257.31762631 392.15246582 260.54431152 C394.20105676 262.9001911 396.29949584 265.20563612 398.40246582 267.51306152 C402.29793152 271.82965865 405.996048 276.27457283 409.65246582 280.79431152 C411.7438517 283.3535074 413.86813946 285.87647683 416.01501465 288.38879395 C422.23167541 295.66654233 428.18304551 303.12163372 434.02746582 310.70056152 C434.63783691 311.49027344 435.24820801 312.27998535 435.8770752 313.09362793 C437.91125173 315.72972392 439.93902356 318.37063296 441.96496582 321.01306152 C442.58460205 321.81743652 443.20423828 322.62181152 443.84265137 323.45056152 C454.46718964 337.36719101 464.27342071 351.87594546 473.96496582 366.45056152 C474.74841873 367.62760651 474.74841873 367.62760651 475.54769897 368.82843018 C483.62235464 380.97004954 491.59482821 393.15192183 499.02746582 405.70056152 C499.6019043 406.66977539 500.17634277 407.63898926 500.76818848 408.63757324 C510.65859839 425.40484733 520.02088936 442.44517939 529.02746582 459.70056152 C529.57612305 460.75114746 530.12478027 461.8017334 530.69006348 462.88415527 C568.93022784 536.59901481 595.43985079 616.28876064 628.26574707 805.74353027 C628.32900681 806.42953308 628.39226654 807.11553589 628.45744324 807.82232666 C628.66093349 810.11411187 628.84476529 812.40702474 629.02746582 814.70056152 C629.15739426 816.18471558 629.15739426 816.18471558 629.28994751 817.69885254 C630.27283021 830.2011821 630.21075593 842.70595054 630.23059082 855.23962402 C630.2334182 856.45946362 630.23624557 857.67930321 630.23915863 858.93610764 C630.25408719 865.41081705 630.2633527 871.8855046 630.2677002 878.36022949 C630.27205765 883.6311343 630.28585197 888.90187291 630.30871582 894.17272949 C630.43486704 923.84052141 630.21410925 953.18491044 627.02746582 982.70056152 C626.8800172 984.13043788 626.7335278 985.56041342 626.58792114 986.99047852 C617.81111376 1073.09009208 596.63671773 1157.86141946 497.02746582 1372.70056152 C496.36069824 1373.80706055 495.69393066 1374.91355957 495.00695801 1376.05358887 C485.82193416 1391.27975444 476.21585117 1406.12755758 466.02746582 1420.70056152 C465.50201172 1421.45627441 464.97655762 1422.2119873 464.43518066 1422.99060059 C453.50630229 1438.70152109 442.28490618 1454.1633687 430.10949707 1468.93493652 C427.18026033 1472.49271395 424.34922072 1476.11991943 421.52746582 1479.76306152 C416.1419283 1486.68157207 410.40835104 1493.27163821 404.62854004 1499.86120605 C403.09124374 1501.6272918 401.57309505 1503.40760525 400.06262207 1505.19665527 C392.97011416 1513.59407986 385.56273584 1521.64311474 377.99816895 1529.61657715 C376.00432954 1531.72502773 374.02220347 1533.84391225 372.04309082 1535.96618652 C349.5297674 1560.08173551 349.5297674 1560.08173551 338.84777832 1569.09899902 C336.64060146 1571.04093574 334.59208969 1573.10794276 332.52746582 1575.20056152 C329.19625775 1578.57156218 325.77634954 1581.74570182 322.17980957 1584.82946777 C319.6469442 1587.03135981 317.1841406 1589.30251978 314.71496582 1591.57556152 C310.25358237 1595.64473544 305.66801864 1599.50033969 300.96887207 1603.29040527 C298.25063869 1605.5176961 295.58660963 1607.79312684 292.93200684 1610.09509277 C286.95634769 1615.27634752 280.87766701 1620.23116215 274.57043457 1625.00524902 C271.92754762 1627.00580449 269.31096643 1629.03718547 266.70324707 1631.08337402 C258.25738878 1637.71051299 249.7581118 1644.19847233 240.9576416 1650.34753418 C238.8062487 1651.85563176 236.66489676 1653.37744091 234.52355957 1654.89978027 C160.09890486 1707.63440781 78.26704729 1748.88529807 -8.09448242 1778.06500244 C-9.87964251 1778.66912568 -11.66295868 1779.27868955 -13.44616699 1779.8885498 C-49.21369407 1792.06215144 -85.96026764 1801.22687417 -122.97253418 1808.70056152 C-124.05033142 1808.91908783 -124.05033142 1808.91908783 -125.14990234 1809.14202881 C-142.41688709 1812.62883408 -159.78134538 1815.36780219 -177.22253418 1817.82556152 C-178.0280069 1817.94217133 -178.83347961 1818.05878113 -179.6633606 1818.17892456 C-186.41928294 1819.14819963 -193.19000538 1819.94201248 -199.97253418 1820.70056152 C-200.67458984 1820.78161636 -201.37664551 1820.8626712 -202.09997559 1820.94618225 C-235.16807654 1824.7597284 -268.086464 1825.33228414 -301.3421371 1825.21483791 C-306.10951328 1825.19975113 -310.87655685 1825.20521054 -315.6439209 1825.2220459 C-348.94760198 1825.33648354 -381.87183742 1824.60323658 -414.97253418 1820.70056152 C-416.27674316 1820.54873413 -417.58095215 1820.39690674 -418.92468262 1820.24047852 C-426.04377817 1819.38992627 -433.13453778 1818.40252206 -440.22253418 1817.32556152 C-442.2848314 1817.02044064 -444.3471697 1816.71559734 -446.4095459 1816.41101074 C-527.13672695 1804.37509771 -606.11121916 1782.12651254 -708.97253418 1736.70056152 C-710.74048296 1735.86677232 -712.50843268 1735.03298509 -714.27642822 1734.19929504 C-752.18032367 1716.29600782 -789.28428617 1695.79299944 -823.90808105 1672.10974121 C-826.31435405 1670.46723793 -828.72936856 1668.83795727 -831.14440918 1667.20837402 C-847.44972442 1656.1811624 -863.47081968 1644.83486238 -878.97253418 1632.70056152 C-880.08834502 1631.83197613 -881.20423228 1630.9634889 -882.32019043 1630.09509277 C-899.19845764 1616.92899125 -915.75575883 1603.39519851 -931.53503418 1588.92321777 C-933.61526143 1587.02634389 -935.71810316 1585.16663209 -937.84753418 1583.32556152 C-949.94480319 1572.76376459 -961.32096397 1561.50949218 -972.65856934 1550.14489746 C-975.35974304 1547.43832827 -978.06626847 1544.73719256 -980.77331543 1542.03649902 C-982.51452183 1540.29463233 -984.25541827 1538.55245572 -985.99597168 1536.80993652 C-987.19303238 1535.61591217 -987.19303238 1535.61591217 -988.41427612 1534.39776611 C-992.58937769 1530.2053101 -996.61278812 1525.93869254 -1000.46466064 1521.44654846 C-1002.8474575 1518.68747611 -1005.35390354 1516.04653604 -1007.84753418 1513.38806152 C-1012.29041298 1508.61298551 -1016.49576325 1503.7123642 -1020.57800293 1498.62243652 C-1022.85354889 1495.84575075 -1025.19517024 1493.14747984 -1027.5682373 1490.45471191 C-1034.53297705 1482.54331849 -1040.96067177 1474.31702091 -1047.3001709 1465.90075684 C-1049.56973081 1462.91487743 -1051.88600015 1459.96687515 -1054.20324707 1457.01794434 C-1080.18524845 1423.90496451 -1103.15433722 1388.25267939 -1123.97253418 1351.70056152 C-1124.59644043 1350.60518066 -1125.22034668 1349.5097998 -1125.86315918 1348.38122559 C-1166.65967716 1276.38615091 -1198.20284748 1198.67913005 -1219.97253418 1109.70056152 C-1220.14399963 1108.98098267 -1220.31546509 1108.26140381 -1220.49212646 1107.52001953 C-1240.75909312 1022.19066232 -1248.68378142 935.20875918 -1243.97253418 818.70056152 C-1243.91172668 817.8867804 -1243.85091919 817.07299927 -1243.78826904 816.23455811 C-1237.56591704 734.26600005 -1220.44706434 654.26069471 -1193.6373291 576.62786865 C-1193.02012288 574.83852593 -1192.40727834 573.04768034 -1191.7947998 571.25671387 C-1174.44930581 520.7227814 -1151.71264139 470.63493548 -1124.65075684 424.57409668 C-1122.79974321 421.40470034 -1120.9853705 418.21571421 -1119.17175293 415.02478027 C-1109.01634244 397.24954955 -1097.89325435 380.21639495 -1086.39709473 363.2833252 C-1084.14498126 359.9629593 -1081.92347715 356.62290348 -1079.70690918 353.27868652 C-1076.49419282 348.45171086 -1073.19252489 343.7042334 -1069.78503418 339.01306152 C-1069.23605469 338.25541504 -1068.6870752 337.49776855 -1068.12145996 336.71716309 C-1062.21417662 328.60200527 -1056.12380624 320.63164327 -1049.97253418 312.70056152 C-1049.4904248 312.07665527 -1049.00831543 311.45274902 -1048.51159668 310.80993652 C-1042.71379418 303.31443495 -1036.74999144 295.99393418 -1030.59362793 288.79040527 C-1028.14950084 285.92478458 -1025.77557684 283.0065063 -1023.41003418 280.07556152 C-1019.53323649 275.31105345 -1015.45781886 270.76412263 -1011.30065918 266.24353027 C-1009.36559156 264.12989098 -1007.47045121 261.99396304 -1005.59753418 259.82556152 C-998.1148332 251.23366016 -990.31404287 242.97004463 -982.20690918 234.96618652 C-980.18591421 232.91692589 -978.28384469 230.82130863 -976.41003418 228.63806152 C-971.40575677 222.81148501 -965.99897022 217.3790193 -960.16003418 212.38806152 C-956.58351318 209.32553156 -953.27891075 206.04752289 -949.97253418 202.70056152 C-946.10955874 198.79507659 -942.20514996 195.02925513 -938.01940918 191.46618652 C-935.51538569 189.30622733 -933.0925572 187.06568159 -930.66003418 184.82556152 C-926.19730586 180.75516096 -921.60995418 176.89879243 -916.91003418 173.10681152 C-913.60898748 170.40276263 -910.38518301 167.61911676 -907.16003418 164.82556152 C-900.88862487 159.41567052 -894.44928922 154.2635757 -887.89880371 149.19714355 C-885.82015808 147.58217553 -883.75326428 145.95290897 -881.68737793 144.32165527 C-872.34151873 136.96213442 -862.82743232 129.93630874 -853.05505371 123.15515137 C-851.00469441 121.72302467 -848.9690342 120.27235396 -846.93737793 118.81384277 C-764.35511205 59.6280665 -671.04888113 16.06803192 0 0 Z " fill="#FEFEFE" transform="translate(1245.9725341796875,51.2994384765625)"/>
<path d="M0 0 C1.41703593 1.03405325 2.81432903 2.09586892 4.1875 3.1875 C4.80238281 3.66574219 5.41726563 4.14398438 6.05078125 4.63671875 C12.19222835 10.04282628 18.52612811 20.74624008 19.38037109 29.06591797 C19.92367478 43.32023094 18.60166188 54.93950888 9.00390625 66.2578125 C5.03315395 70.47620312 1.20381462 73.81454079 -4.03515625 76.35546875 C-4.74551025 76.70246826 -5.45586426 77.04946777 -6.18774414 77.40698242 C-6.72391357 77.66455322 -7.26008301 77.92212402 -7.8125 78.1875 C-7.80751401 79.13926463 -7.80252802 80.09102926 -7.79739094 81.07163525 C-7.6784043 104.26757431 -7.62302507 127.46300745 -7.63371754 150.65925884 C-7.63742735 161.87706364 -7.62073384 173.09413476 -7.55541992 184.31176758 C-7.49852097 194.09313393 -7.4805034 203.87368181 -7.5084936 213.65518695 C-7.52196516 218.83120025 -7.51643036 224.00556912 -7.46427345 229.18137169 C-7.41570865 234.06182457 -7.41946804 238.93954708 -7.46191406 243.82003021 C-7.4684617 245.60292883 -7.4565263 247.38601535 -7.42386436 249.16862679 C-7.24505335 259.59807628 -8.18016572 266.30440682 -15.5722149 274.0322358 C-16.97734615 275.42574034 -18.39477891 276.80680612 -19.8125 278.1875 C-21.33692565 280.00057406 -22.84150536 281.8308132 -24.3125 283.6875 C-28.06037798 288.2920358 -31.88233444 292.82769191 -35.7265625 297.3515625 C-39.36312229 301.63823354 -42.93197278 305.97564625 -46.4609375 310.3515625 C-48.22194163 312.47529838 -50.00732049 314.53690755 -51.8515625 316.5859375 C-52.36396484 317.16408203 -52.87636719 317.74222656 -53.40429688 318.33789062 C-54.40623395 319.46491029 -55.42018033 320.58139696 -56.44726562 321.68554688 C-58.01851671 323.40008057 -58.01851671 323.40008057 -59.8125 326.1875 C-59.4014187 329.9985411 -58.08750012 333.48968697 -56.80078125 337.0859375 C-56.38038574 338.26607422 -55.95999023 339.44621094 -55.52685547 340.66210938 C-55.05966353 341.96227308 -54.59237504 343.2624021 -54.125 344.5625 C-53.63140471 345.94326343 -53.13808501 347.32412541 -52.64501953 348.70507812 C-51.31265011 352.43361728 -49.97574095 356.16051387 -48.63787842 359.88708496 C-47.55158444 362.91469866 -46.46801492 365.94328417 -45.38441467 368.97186279 C-38.68911579 387.68208153 -31.94571317 406.37492621 -25.1875 425.0625 C-24.8559491 425.97942627 -24.52439819 426.89635254 -24.18280029 427.84106445 C-23.54478194 429.60520045 -22.90573353 431.36896439 -22.26548004 433.13229042 C-21.59340695 434.99477048 -20.92817356 436.85974296 -20.27201462 438.727889 C-18.2978972 444.2993685 -16.16447691 449.7466402 -13.80685425 455.16761875 C-4.72007269 476.56910063 -3.09933588 495.79478744 -3.39380574 518.85735691 C-3.44246918 523.74659821 -3.41976623 528.63564534 -3.40647888 533.52503967 C-3.39274011 541.95701796 -3.42165067 550.38793046 -3.48080444 558.81970024 C-3.56597886 571.02066484 -3.57956543 583.22094112 -3.57613456 595.42216516 C-3.57208181 615.24186462 -3.61823122 635.06109413 -3.69970703 654.88061523 C-3.77848901 674.08470071 -3.84321604 693.28870912 -3.88232422 712.49291992 C-3.88475152 713.67936824 -3.88717882 714.86581655 -3.88967967 716.08821785 C-3.91564132 729.04506043 -3.93598879 742.00190272 -3.94967651 754.95876408 C-3.95089024 756.09741252 -3.95210397 757.23606097 -3.95335448 758.40921392 C-3.95813047 762.96069137 -3.96284595 767.51216871 -3.96684384 772.06364692 C-3.9786659 785.36303436 -4.00786478 798.66211017 -4.06882852 811.96136779 C-4.10658223 820.28645767 -4.13143266 828.61151548 -4.14617735 836.93667781 C-4.15534374 841.73612554 -4.17138261 846.53530948 -4.20519829 851.33465195 C-4.23614728 855.72992586 -4.24862986 860.12485684 -4.24671602 864.52023567 C-4.24934364 866.10692741 -4.25877814 867.69362615 -4.27584219 869.28022831 C-4.41941719 881.76245721 -4.41941719 881.76245721 0.1875 893.1875 C3.24103137 895.22318758 3.86633697 895.44029189 7.30419922 895.4621582 C8.12870575 895.47169022 8.95321228 895.48122223 9.80270386 895.49104309 C10.69023346 895.49013168 11.57776306 895.48922028 12.4921875 895.48828125 C13.40831818 895.49256638 14.32444885 895.4968515 15.26834106 895.50126648 C17.20671767 895.50700999 19.14511583 895.50750989 21.08349609 895.50317383 C24.04432145 895.50001937 27.00414235 895.5234535 29.96484375 895.54882812 C31.84895707 895.55110171 33.73307308 895.55180434 35.6171875 895.55078125 C36.50066864 895.559991 37.38414978 895.56920074 38.29440308 895.57868958 C44.82483085 895.57872383 44.82483085 895.57872383 50.1875 892.1875 C53.82952708 883.99568649 53.57732099 875.93425059 53.49201965 867.14413452 C53.4874289 865.51012028 53.48420654 863.87610173 53.48222846 862.24208224 C53.47501967 858.69861752 53.45823819 855.15537169 53.43407631 851.61198235 C53.39479378 845.84397992 53.37636403 840.07601477 53.36044312 834.3079071 C53.33549919 825.92669546 53.30115938 817.54556583 53.26197243 809.16440964 C53.20122489 795.87904911 53.17761014 782.59373695 53.16081238 769.30825806 C53.1577563 767.04066826 53.15467624 764.77307849 53.15157253 762.50548875 C53.14688643 759.06850759 53.14221298 755.63152643 53.13761819 752.19454514 C53.12011056 739.23808676 53.09818028 726.28163912 53.07202148 713.32519531 C53.06964325 712.14127841 53.06726501 710.95736151 53.06481471 709.73756833 C53.02511366 690.62661982 52.944683 671.51602388 52.85157279 652.40527086 C52.75694987 632.72784294 52.71683053 613.05078789 52.72323912 593.3731333 C52.72531102 581.27165241 52.68510041 569.1718861 52.58782538 557.07078899 C52.52476544 548.74173311 52.51458834 540.41358824 52.5431901 532.08434866 C52.55806556 527.30276999 52.5520817 522.52407639 52.4816227 517.74292946 C52.13651691 492.98030365 55.90423413 472.84669155 65.43096254 449.93139993 C68.68795548 442.09607654 71.512604 434.11646424 74.32312325 426.11228083 C75.18084086 423.67325717 76.05379283 421.23983255 76.92993164 418.80737305 C77.18705429 418.09120316 77.44417694 417.37503326 77.70909119 416.63716125 C81.73235516 405.43809431 85.77971697 394.24780481 89.83071899 383.05874634 C90.92567815 380.03267137 92.01913727 377.00605884 93.11206055 373.97924805 C93.81684458 372.02781399 94.52167776 370.07639768 95.2265625 368.125 C95.56716202 367.18207596 95.90776154 366.23915192 96.25868225 365.26765442 C98.07222772 360.2526816 99.89807506 355.24259458 101.74401855 350.23945618 C102.49189293 348.21057607 103.23555569 346.18021083 103.97753906 344.14916992 C104.83796266 341.79716709 105.70649663 339.4481076 106.58496094 337.1027832 C106.95137695 336.09562256 107.31779297 335.08846191 107.6953125 334.05078125 C108.01129395 333.19782471 108.32727539 332.34486816 108.65283203 331.46606445 C109.25487735 328.90036172 109.13771898 327.62692504 108.1875 325.1875 C106.57091309 323.08305026 104.94178258 321.10708099 103.1875 319.125 C102.17629161 317.95771664 101.16588584 316.78973754 100.15625 315.62109375 C99.65222656 315.04085449 99.14820313 314.46061523 98.62890625 313.86279297 C96.60266386 311.50776667 94.64369665 309.1008513 92.6875 306.6875 C89.39926388 302.64766705 86.06023558 298.65662329 82.6875 294.6875 C78.58996309 289.86440926 74.52382201 285.02131988 70.59286308 280.06043625 C68.25084114 277.16339065 68.25084114 277.16339065 65.60978889 274.6828804 C58.5134962 267.43978302 56.91491011 261.86160594 56.87983704 251.82719421 C56.90577391 250.10450839 56.93267638 248.38183689 56.96044922 246.65917969 C56.95339517 244.81504727 56.94194569 242.97092727 56.9264679 241.12684631 C56.89703965 236.15382277 56.92859797 231.18288587 56.97163153 226.21003246 C57.00616522 221.00097976 56.98389112 215.79216685 56.96780396 210.58306885 C56.94593614 200.73397165 56.97469505 190.88570808 57.021927 181.03672624 C57.07324282 169.81774362 57.06768893 158.59901054 57.05750632 147.37994146 C57.03783906 124.31552049 57.08910723 101.25169831 57.1875 78.1875 C56.57986816 77.8570166 55.97223633 77.5265332 55.34619141 77.18603516 C54.54358887 76.74565918 53.74098633 76.3052832 52.9140625 75.8515625 C52.12080566 75.4179541 51.32754883 74.9843457 50.51025391 74.53759766 C40.64057722 68.80086105 34.36996655 58.99659356 30.8515625 48.2578125 C28.14482768 35.74314444 30.05586893 23.4883094 36.83203125 12.52734375 C38.50418409 10.26635153 40.24681725 8.22079668 42.1875 6.1875 C42.97060547 5.36185547 42.97060547 5.36185547 43.76953125 4.51953125 C53.53288868 -4.72121338 64.84136503 -7.31209368 77.78125 -7.08984375 C89.96908685 -6.56369358 100.35014752 -0.4228195 108.625 8.2734375 C115.13668528 16.25025196 118.76477487 25.68845243 118.625 35.9375 C118.61364014 37.11493774 118.61364014 37.11493774 118.60205078 38.31616211 C118.27496294 49.96836787 114.20750033 59.91761287 106.1171875 68.34375 C100.03209743 74.02599439 93.77852892 79.37187206 85.1875 79.1875 C85.24811066 86.75000482 85.30946157 94.31250344 85.37109375 101.875 C85.38533418 103.62912736 85.38533418 103.62912736 85.39986229 105.41869164 C85.51524645 119.58887754 85.6376019 133.75896343 85.77490234 147.92895508 C85.81266652 151.84658988 85.85041339 155.76422486 85.88814545 159.68185997 C85.91327315 162.28582567 85.93852682 164.88979016 85.96390533 167.49375343 C86.10074418 181.63587896 86.21364429 195.7768307 86.22468567 209.91964722 C86.22886332 215.22889315 86.25364633 220.53795052 86.28674221 225.84708977 C86.30601916 229.16873034 86.30883816 232.48912315 86.28903198 235.81079102 C86.26857816 239.37867331 86.28921973 242.94397374 86.3203125 246.51171875 C86.30288498 247.5136174 86.28545746 248.51551605 86.26750183 249.54777527 C86.35923455 254.70920712 86.9126542 257.49058486 90.60717773 261.23388672 C91.7798181 262.2431092 92.97111321 263.2314568 94.1875 264.1875 C94.89777344 264.82558594 95.60804688 265.46367187 96.33984375 266.12109375 C97.22349609 266.86552734 97.22349609 266.86552734 98.125 267.625 C100.93326347 270.04367779 103.58720593 272.54649683 106.1875 275.1875 C111.52617484 280.59959473 117.24981665 285.4490592 123.1875 290.1875 C123.60523682 288.98963867 124.02297363 287.79177734 124.45336914 286.55761719 C126.0393572 282.00988925 127.62549383 277.46221314 129.21166992 272.91455078 C129.89139643 270.96567116 130.57108539 269.01677844 131.25073242 267.06787109 C133.234164 261.38037004 135.21860099 255.6932212 137.20391846 250.00637817 C138.18365245 247.19852682 139.16195695 244.39018023 140.14013672 241.58178711 C140.75874392 239.80841524 141.37739435 238.03505845 141.99609375 236.26171875 C142.41315331 235.06255829 142.41315331 235.06255829 142.83863831 233.83917236 C144.92686985 227.85965647 147.14211844 221.9385907 149.4375 216.03515625 C150.27845895 212.84214025 150.27605391 211.28838064 149.1875 208.1875 C147.58410805 205.7462192 147.58410805 205.7462192 145.5625 203.3125 C132.76421633 186.25579461 130.58230497 168.06186607 132.1875 147.1875 C134.62739829 130.19559125 145.51015666 114.08027311 158.75 103.625 C176.02829538 91.1041827 195.81475098 85.44075116 217.06640625 88.80078125 C237.47899366 93.7145218 254.29477548 105.07439616 265.9375 122.625 C275.88251772 138.94386999 279.09701871 158.62058475 274.6875 177.25 C269.58102738 196.48121339 258.04009028 212.98446843 240.796875 223.1953125 C233.55319989 227.11132726 226.26745757 229.63366201 218.1875 231.1875 C217.92195313 232.28449219 217.65640625 233.38148438 217.3828125 234.51171875 C217.02623185 235.96619247 216.6694504 237.42061698 216.3125 238.875 C216.13847656 239.59623047 215.96445313 240.31746094 215.78515625 241.06054688 C215.61113281 241.76630859 215.43710938 242.47207031 215.2578125 243.19921875 C215.02215576 244.16541138 215.02215576 244.16541138 214.78173828 245.15112305 C214.07602164 247.56952177 213.15176452 249.86160921 212.1875 252.1875 C228.4557624 248.05202721 228.4557624 248.05202721 244.55078125 243.30078125 C249.5926877 241.7573405 254.67029378 240.35078334 259.75 238.9375 C268.90619657 236.38951489 278.05140467 233.80667005 287.1875 231.1875 C296.01298692 228.65883223 304.84459004 226.15455138 313.6875 223.6875 C324.99639217 220.53197331 336.28711782 217.3145501 347.57421875 214.08203125 C348.64591309 213.77604004 349.71760742 213.47004883 350.82177734 213.15478516 C353.22558312 212.46394819 355.62650613 211.76591577 358.02587891 211.06005859 C359.28190918 210.69348145 360.53793945 210.3269043 361.83203125 209.94921875 C362.97647705 209.61237061 364.12092285 209.27552246 365.30004883 208.9284668 C368.1875 208.1875 368.1875 208.1875 371.1875 208.1875 C371.125625 207.07375 371.06375 205.96 371 204.8125 C371.05814447 193.80381441 376.45927847 184.03307703 383.6875 176 C393.53731275 166.62648381 405.29737169 163.83495181 418.46484375 164.04296875 C430.8277768 164.52295671 440.70073807 170.24446055 449.1875 179.1875 C457.91223166 190.1478205 460.46290607 202.33195226 459.1875 216.1875 C456.17140542 227.78386363 450.17198355 238.31995643 440.1875 245.1875 C436.6096536 247.10620283 432.97532904 248.73022283 429.1875 250.1875 C428.25550781 250.55488281 427.32351563 250.92226563 426.36328125 251.30078125 C416.30765234 254.10844148 404.37029708 253.10890531 395.1875 248.1875 C390.83443367 245.52248354 386.62504586 242.85728741 383.27734375 238.96875 C381.28684565 236.94782753 381.28684565 236.94782753 378.421875 236.80859375 C374.62688568 237.25317583 371.08585935 238.16030577 367.4375 239.25 C365.82849201 239.71351548 364.21909268 240.17567393 362.609375 240.63671875 C361.73990234 240.88728027 360.87042969 241.1378418 359.97460938 241.39599609 C354.89361143 242.83893542 349.78955042 244.19626056 344.6875 245.5625 C342.45311027 246.16270557 340.21873545 246.76296669 337.984375 247.36328125 C336.86224609 247.66443848 335.74011719 247.9655957 334.58398438 248.27587891 C329.03463917 249.76533082 323.48593062 251.25714501 317.9375 252.75 C316.85533203 253.04116699 315.77316406 253.33233398 314.65820312 253.63232422 C307.83103043 255.47096382 301.00778124 257.32347193 294.1875 259.1875 C280.75415325 262.8589227 267.30423205 266.46855413 253.85546875 270.08300781 C250.54939311 270.97168561 247.24341408 271.8607214 243.9375 272.75 C242.86806152 273.03762207 241.79862305 273.32524414 240.69677734 273.62158203 C232.58855644 275.8046121 224.48636261 278.00928 216.38964844 280.23461914 C215.14103027 280.57674438 215.14103027 280.57674438 213.8671875 280.92578125 C213.07828125 281.15128662 212.289375 281.37679199 211.4765625 281.60913086 C209.1875 282.1875 209.1875 282.1875 206.9296875 282.47094727 C204.49703604 282.73440858 204.49703604 282.73440858 201.1875 284.1875 C199.25553524 287.08544713 198.38145383 290.16907476 197.4375 293.5 C197.15076416 294.40991699 196.86402832 295.31983398 196.56860352 296.25732422 C195.74429823 298.89257846 194.96215585 301.53730637 194.1875 304.1875 C193.50105653 306.39616198 192.81374309 308.60455405 192.125 310.8125 C191.82464844 311.81539063 191.52429687 312.81828125 191.21484375 313.8515625 C189.94114243 317.98745957 188.56729453 322.08600648 187.1875 326.1875 C185.45671448 331.33649322 183.76302532 336.48826645 182.1875 341.6875 C180.3725448 347.67685215 178.39205684 353.60364523 176.3984375 359.53515625 C174.93518874 363.9027321 173.52346005 368.27883184 172.1875 372.6875 C170.3725448 378.67685215 168.39205684 384.60364523 166.3984375 390.53515625 C164.93518874 394.9027321 163.52346005 399.27883184 162.1875 403.6875 C160.37388861 409.67241759 158.39505887 415.59488085 156.40283203 421.52197266 C154.59307302 426.92370738 152.87499968 432.34642963 151.2421875 437.8046875 C150.24060096 441.0171836 149.18792942 444.20742153 148.12158203 447.39892578 C147.75984894 448.48215118 147.39811584 449.56537659 147.02542114 450.681427 C146.74890717 451.50843109 146.47239319 452.33543518 146.1875 453.1875 C154.18062915 450.53261964 162.17281525 447.87490905 170.1642952 445.21506882 C171.46742724 444.78135573 172.77057604 444.347693 174.07374191 443.91408157 C188.0039533 439.27880405 201.93199463 434.6386269 215.8203125 429.87890625 C216.76795975 429.55414307 217.71560699 429.22937988 218.69197083 428.89477539 C223.06166126 427.39540218 227.4292775 425.8902342 231.79467773 424.37841797 C233.34358525 423.84472079 234.89249464 423.31102904 236.44140625 422.77734375 C237.11603912 422.54173233 237.790672 422.30612091 238.48574829 422.06336975 C243.04081599 420.49704648 247.47354359 419.3659891 252.1875 418.1875 C252.1875 399.7075 252.1875 381.2275 252.1875 362.1875 C250.2075 361.5275 248.2275 360.8675 246.1875 360.1875 C235.23188207 353.85795854 227.29417621 344.81819626 223.3671875 332.64453125 C220.6773128 320.7295229 221.79703226 309.24048228 227.6953125 298.421875 C234.75675171 287.71476252 243.72274451 281.60595895 255.4375 276.875 C268.20189335 274.53486122 280.55506357 276.18977456 291.5 283.375 C301.32587431 290.87201449 308.64984628 300.50252437 310.90625 312.84765625 C312.50997602 326.1897658 309.46363652 337.76795079 301.4375 348.53515625 C296.82516941 354.10528936 291.73803331 358.08269332 285.1875 361.1875 C284.5275 361.1875 283.8675 361.1875 283.1875 361.1875 C283.1875 376.6975 283.1875 392.2075 283.1875 408.1875 C288.35019531 406.455 293.51289062 404.7225 298.83203125 402.9375 C302.09944508 401.84325374 305.36694327 400.74927379 308.63476562 399.65625 C313.82387285 397.92056516 319.01263524 396.18389334 324.19946289 394.44140625 C328.38025376 393.03695998 332.56248641 391.63689 336.74576378 390.23986816 C338.34310955 389.70556903 339.93992556 389.16968347 341.53620338 388.63220215 C343.76861201 387.88082842 346.00282169 387.13506965 348.23754883 386.390625 C348.90001617 386.16620728 349.56248352 385.94178955 350.24502563 385.71057129 C353.03330678 384.78742835 355.22593772 384.1875 358.1875 384.1875 C358.249375 383.28 358.31125 382.3725 358.375 381.4375 C360.45518485 367.77944423 370.36571771 352.68744467 381.1875 344.1875 C398.14301389 332.16335463 416.02030249 324.95493987 437.1875 327.1875 C451.7258556 329.86232651 465.02926011 335.35036319 476.1875 345.1875 C476.92613281 345.83203125 477.66476562 346.4765625 478.42578125 347.140625 C491.16359612 359.02045234 499.46354826 374.92501052 500.29443359 392.44189453 C500.53082914 401.47220421 500.74925636 410.44834381 498.1875 419.1875 C497.91292969 420.24517578 497.91292969 420.24517578 497.6328125 421.32421875 C493.19573023 436.58011273 482.96460706 449.85908113 470.1875 459.1875 C469.52234375 459.67476562 468.8571875 460.16203125 468.171875 460.6640625 C452.31353578 471.18234871 432.41555724 474.26772037 413.875 471.1875 C405.91672495 469.46362549 394.0652631 466.0652631 388.1875 460.1875 C382.35484701 460.61788299 377.38788133 461.94956743 371.9375 464 C370.44433144 464.54515093 368.95083974 465.08941754 367.45703125 465.6328125 C366.73209473 465.89868164 366.0071582 466.16455078 365.26025391 466.43847656 C362.39955645 467.47223626 359.51526096 468.42749387 356.625 469.375 C352.81480313 470.63127929 349.05792006 471.97050565 345.3125 473.40625 C341.59524686 474.77288718 337.82315242 475.9777347 334.0625 477.21875 C331.74905595 477.99828006 329.46633401 478.81394696 327.1875 479.6875 C322.86141022 481.34583441 318.46136896 482.76712324 314.0625 484.21875 C311.74905595 484.99828006 309.46633401 485.81394696 307.1875 486.6875 C302.86141022 488.34583441 298.46136896 489.76712324 294.0625 491.21875 C291.74905595 491.99828006 289.46633401 492.81394696 287.1875 493.6875 C282.94429685 495.31406121 278.632181 496.71640837 274.3125 498.125 C271.29163297 499.15209479 268.31391816 500.2601864 265.33007812 501.38867188 C261.55320838 502.79682112 257.74436522 504.11307631 253.9375 505.4375 C252.16794561 506.05462115 250.39841505 506.67181063 248.62890625 507.2890625 C247.72930176 507.60262695 246.82969727 507.91619141 245.90283203 508.23925781 C243.25556154 509.1637317 240.60991742 510.09269877 237.96484375 511.0234375 C230.30662446 513.7163735 222.64587881 516.39113886 214.9375 518.9375 C210.65477916 520.35278019 206.41475462 521.81882011 202.20703125 523.44140625 C198.52687556 524.80099955 194.78774435 525.98941936 191.0625 527.21875 C188.74905595 527.99828006 186.46633401 528.81394696 184.1875 529.6875 C179.86141022 531.34583441 175.46136896 532.76712324 171.0625 534.21875 C168.1651983 535.1950147 165.31377257 536.25431824 162.4609375 537.3515625 C159.63900433 538.38918054 156.7913704 539.33512992 153.9375 540.28125 C152.85984375 540.63896484 151.7821875 540.99667969 150.671875 541.36523438 C149.44210937 541.77225586 149.44210937 541.77225586 148.1875 542.1875 C148.18804207 543.01202374 148.18858415 543.83654748 148.18914264 544.68605679 C148.22039323 593.57044935 148.21519873 642.45472252 148.16277504 691.33910067 C148.15650981 697.210686 148.15054863 703.08227159 148.14477539 708.95385742 C148.14304373 710.70722385 148.14304373 710.70722385 148.14127708 712.49601183 C148.12331729 731.41478122 148.12997901 750.3334657 148.14576416 769.25223359 C148.16141615 788.66935618 148.15055256 808.08633385 148.11515242 827.50343114 C148.09414761 839.48174482 148.09374429 851.45969351 148.11981983 863.43799875 C148.13572608 871.65561979 148.12584127 879.87295965 148.09583985 888.09054025 C148.07929502 892.82949043 148.07396402 897.56774038 148.09931374 902.30666733 C148.12230602 906.65198617 148.11265258 910.99600766 148.07786006 915.34123675 C148.07093953 916.90672712 148.07563849 918.47232506 148.0936371 920.03772726 C148.24085381 933.8322431 144.15707683 943.94630117 134.54296875 954.0625 C117.57616803 969.36919915 95.73686387 976.1875 73.1875 976.1875 C73.1875 1045.1575 73.1875 1114.1275 73.1875 1185.1875 C225.6475 1185.1875 378.1075 1185.1875 535.1875 1185.1875 C535.1875 1157.1375 535.1875 1129.0875 535.1875 1100.1875 C561.9175 1100.1875 588.6475 1100.1875 616.1875 1100.1875 C616.1875 1162.2275 616.1875 1224.2675 616.1875 1288.1875 C252.5275 1288.1875 -111.1325 1288.1875 -485.8125 1288.1875 C-485.8125 1316.2375 -485.8125 1344.2875 -485.8125 1373.1875 C-512.2125 1373.1875 -538.6125 1373.1875 -565.8125 1373.1875 C-565.8125 1311.1475 -565.8125 1249.1075 -565.8125 1185.1875 C-386.9525 1185.1875 -208.0925 1185.1875 -23.8125 1185.1875 C-23.8125 1116.2175 -23.8125 1047.2475 -23.8125 976.1875 C-28.7625 975.8575 -33.7125 975.5275 -38.8125 975.1875 C-58.02364197 972.85561535 -76.28894335 964.25961413 -88.8125 949.1875 C-91.00764839 945.9510006 -92.9708856 942.63612825 -94.8125 939.1875 C-95.16272213 938.61686695 -95.51294426 938.0462339 -95.87377918 937.45830894 C-97.13744798 934.40143585 -97.06070204 931.86470725 -97.05859566 928.55768204 C-97.06090335 927.8895358 -97.06321103 927.22138957 -97.06558865 926.53299648 C-97.07090125 924.28412559 -97.06189425 922.03553851 -97.05300903 919.78668213 C-97.05388084 918.16218268 -97.05563137 916.53768351 -97.05818737 914.91318583 C-97.06266973 910.44136889 -97.05464502 905.96964734 -97.04463124 901.49784255 C-97.03601183 896.67850858 -97.03891583 891.8591802 -97.04043579 887.0398407 C-97.0414856 878.68740815 -97.03519899 870.33500679 -97.02396011 861.98258209 C-97.00772105 849.90631197 -97.00249874 837.83005697 -96.99998413 825.75377712 C-96.99560452 806.16185197 -96.98228821 786.56994346 -96.96337891 766.97802734 C-96.94502698 747.9438485 -96.93086711 728.90967418 -96.92236328 709.87548828 C-96.92183783 708.70264991 -96.92131239 707.52981155 -96.92077102 706.32143262 C-96.91816098 700.43777518 -96.91563356 694.55411771 -96.91314721 688.67046022 C-96.89240643 639.84279532 -96.85717367 591.01514847 -96.8125 542.1875 C-97.43339673 542.0517412 -98.05429347 541.9159824 -98.69400525 541.7761097 C-99.50692493 541.59718618 -100.31984461 541.41826267 -101.15739822 541.23391724 C-101.96391996 541.05690844 -102.77044169 540.87989964 -103.60140347 540.69752693 C-105.87073634 540.1740668 -108.04051876 539.53689759 -110.22949219 538.7421875 C-110.97731461 538.47388123 -111.72513702 538.20557495 -112.49562073 537.92913818 C-113.27565964 537.64314758 -114.05569855 537.35715698 -114.859375 537.0625 C-115.69899277 536.75991272 -116.53861053 536.45732544 -117.40367126 536.14556885 C-119.19511017 535.49946295 -120.98569614 534.85098791 -122.77548218 534.20031738 C-127.53487906 532.47072676 -132.30115568 530.76025654 -137.06640625 529.046875 C-138.00986404 528.70710632 -138.95332184 528.36733765 -139.92536926 528.01727295 C-147.09870823 525.43609225 -154.28801345 522.90896117 -161.5 520.4375 C-162.57878418 520.0674585 -163.65756836 519.69741699 -164.76904297 519.31616211 C-166.5687574 518.69921314 -168.3684795 518.08228632 -170.168396 517.46592712 C-202.28161134 506.4656974 -234.36718519 495.38868766 -266.31982422 483.9296875 C-269.8587677 482.66066996 -273.3979972 481.39245666 -276.9375 480.125 C-278.07034424 479.71926758 -279.20318848 479.31353516 -280.37036133 478.89550781 C-290.12016174 475.41378358 -299.90150183 472.02763723 -309.69580078 468.67358398 C-310.8145459 468.29016846 -311.93329102 467.90675293 -313.0859375 467.51171875 C-314.18260742 467.13708496 -315.27927734 466.76245117 -316.40917969 466.37646484 C-318.81720544 465.53521051 -321.20945793 464.67504387 -323.59863281 463.78369141 C-324.53976425 463.43598442 -324.53976425 463.43598442 -325.49990845 463.08125305 C-327.24915493 462.43251108 -328.99505243 461.77475962 -330.74072266 461.11645508 C-335.42923974 459.69857179 -337.81558683 459.72392413 -342.2734375 461.796875 C-343.58043071 462.50618447 -344.88500118 463.2199709 -346.1875 463.9375 C-363.37134496 472.86601326 -380.91520742 475.0079008 -399.4921875 469.30859375 C-400.58789062 468.93863281 -401.68359375 468.56867188 -402.8125 468.1875 C-404.14667969 467.77177734 -404.14667969 467.77177734 -405.5078125 467.34765625 C-424.21951527 460.81961847 -437.76540404 445.01358595 -446.1875 427.625 C-453.51839966 409.12961095 -453.03982719 388.75471602 -445.26953125 370.578125 C-436.85953502 352.16911307 -422.41824571 338.75846186 -403.68701172 331.34643555 C-398.23885223 329.39641125 -392.93778705 328.41861008 -387.1875 327.875 C-386.31867188 327.79233887 -385.44984375 327.70967773 -384.5546875 327.62451172 C-366.52407291 326.16946764 -347.68289842 331.1114937 -333.5703125 342.76953125 C-322.66851174 352.25564474 -311.64810181 365.36825498 -309.15307617 380.07421875 C-307.93864284 383.2868566 -306.96595487 384.10394931 -303.90036011 385.77305603 C-299.82770591 387.33443558 -295.7315408 388.67724035 -291.56640625 389.96484375 C-290.03239173 390.46395982 -288.49927373 390.96583899 -286.96702576 391.47035217 C-282.93797497 392.78858558 -278.89767018 394.06827122 -274.85388184 395.3404541 C-270.74321181 396.64144766 -266.64477143 397.97983851 -262.54492188 399.31445312 C-256.55363976 401.25862425 -250.55830908 403.18922891 -244.55297852 405.08959961 C-243.34513199 405.47184189 -242.13728546 405.85408417 -240.89283752 406.24790955 C-238.55223752 406.96185904 -236.18650278 407.5939993 -233.8125 408.1875 C-233.8125 392.6775 -233.8125 377.1675 -233.8125 361.1875 C-235.4625 360.5275 -237.1125 359.8675 -238.8125 359.1875 C-240.85083424 357.9135411 -242.85102126 356.57688077 -244.8125 355.1875 C-245.616875 354.65125 -246.42125 354.115 -247.25 353.5625 C-255.46361308 345.949883 -260.31966859 336.3405959 -261.0859375 325.21875 C-261.4985569 312.19751684 -259.43577253 301.43816926 -250.76171875 291.18359375 C-241.76281251 281.96828094 -231.28181974 276.28917397 -218.3125 275.75 C-207.04001547 275.93026361 -196.15164773 279.40557642 -187.8125 287.1875 C-187.21179688 287.69925781 -186.61109375 288.21101563 -185.9921875 288.73828125 C-178.11111638 295.88583276 -173.26022989 305.63449135 -172.6328125 316.21875 C-172.32956321 330.63993824 -175.52864077 341.74410033 -185.5625 352.5625 C-189.82967186 356.56192775 -196.72850221 362.1875 -202.8125 362.1875 C-202.8125 380.6675 -202.8125 399.1475 -202.8125 418.1875 C-201.4925 418.5175 -200.1725 418.8475 -198.8125 419.1875 C-197.18060382 419.70472643 -195.5537128 420.23787269 -193.93066406 420.78222656 C-192.9615509 421.10636536 -191.99243774 421.43050415 -190.99395752 421.76446533 C-189.94923279 422.11547302 -188.90450806 422.46648071 -187.828125 422.828125 C-186.19553741 423.37421417 -186.19553741 423.37421417 -184.52996826 423.93133545 C-179.88233588 425.48597052 -175.23586662 427.04406834 -170.58935547 428.60205078 C-167.19021386 429.74121473 -163.79059189 430.87892666 -160.390625 432.015625 C-159.28916138 432.38409546 -158.18769775 432.75256592 -157.05285645 433.13220215 C-150.98785343 435.15371759 -144.91025246 437.11459521 -138.796875 438.984375 C-133.84862634 440.50711226 -129.0783606 442.21599426 -124.30175781 444.20507812 C-119.19252728 446.22151042 -113.92557447 447.79298825 -108.6875 449.4375 C-107.54023437 449.80101562 -106.39296875 450.16453125 -105.2109375 450.5390625 C-102.41250039 451.42523425 -99.61303118 452.30797318 -96.8125 453.1875 C-96.9983667 452.64037354 -97.1842334 452.09324707 -97.37573242 451.52954102 C-100.55449842 442.14801807 -103.71245772 432.77486219 -106.4375 423.25 C-108.22934742 416.98982872 -110.31833341 410.89660396 -112.5625 404.78125 C-114.2011199 400.0702178 -115.5653691 395.2977886 -116.9375 390.50390625 C-118.2407278 385.99962516 -119.69611326 381.59215386 -121.3125 377.1875 C-123.45334455 371.35369861 -125.22889419 365.47334779 -126.9375 359.50390625 C-128.2407278 354.99962516 -129.69611326 350.59215386 -131.3125 346.1875 C-133.45334455 340.35369861 -135.22889419 334.47334779 -136.9375 328.50390625 C-138.57473458 322.84521422 -140.52190026 317.33803075 -142.5546875 311.80859375 C-144.23534514 306.97017874 -145.65404995 302.06885849 -147.02539062 297.13476562 C-147.4059993 295.78908818 -147.80853792 294.44939963 -148.23388672 293.1171875 C-148.8125 291.1875 -148.8125 291.1875 -149.546875 287.44140625 C-153.42258661 281.87508251 -160.1177945 281.4435639 -166.4375 280.0625 C-167.86576565 279.72749133 -169.29326066 279.3891803 -170.7199707 279.04760742 C-173.51149836 278.38019461 -176.30523414 277.72379412 -179.10107422 277.07470703 C-183.45407794 276.0341324 -187.72753064 274.82769112 -192 273.5 C-198.7180212 271.45181247 -205.49489848 269.73304618 -212.31445312 268.05737305 C-221.84032234 265.70789015 -231.2703173 263.04282816 -240.70849609 260.36621094 C-252.36116197 257.06428409 -264.01026203 253.83322661 -275.77685547 250.9609375 C-281.694468 249.50340928 -287.52463148 247.83431078 -293.35668945 246.06860352 C-299.8634849 244.12078758 -306.43774897 242.48118986 -313.0390625 240.88671875 C-317.37726145 239.83205126 -321.58448133 238.63492982 -325.8125 237.1875 C-328.76941709 236.43734805 -328.76941709 236.43734805 -331.8125 237.1875 C-333.39336705 238.55932347 -333.39336705 238.55932347 -334.9375 240.3125 C-341.80277921 247.81711785 -352.06069903 251.741167 -362.0625 252.40234375 C-376.32466427 252.78656154 -387.16415947 248.74020818 -397.625 238.9375 C-401.86302629 234.50479406 -404.48788324 229.82632941 -406.8125 224.1875 C-407.16957031 223.38957031 -407.52664063 222.59164062 -407.89453125 221.76953125 C-411.80783417 210.76232603 -409.95306894 198.19525571 -405.0625 187.875 C-399.04688258 176.76924476 -390.17103341 168.83251943 -377.9921875 164.84765625 C-364.42404277 162.03068271 -352.00999448 164.38949978 -340.0625 171.3125 C-330.67586721 177.68296692 -325.12133247 186.4229577 -321.8125 197.1875 C-321.26251491 200.21901783 -321.01139546 203.10462032 -320.8125 206.1875 C-320.00172255 208.37338683 -320.00172255 208.37338683 -317.81665039 208.94604492 C-316.94000732 209.18427979 -316.06336426 209.42251465 -315.16015625 209.66796875 C-313.67394775 210.07789063 -313.67394775 210.07789063 -312.15771484 210.49609375 C-311.07441895 210.78613281 -309.99112305 211.07617188 -308.875 211.375 C-307.19591553 211.83519531 -307.19591553 211.83519531 -305.48291016 212.3046875 C-299.7202358 213.87932039 -293.94842962 215.41943658 -288.17578125 216.95703125 C-286.01296148 217.53363159 -283.8502008 218.11045359 -281.6875 218.6875 C-280.60758789 218.97512207 -279.52767578 219.26274414 -278.41503906 219.55908203 C-270.31185516 221.7362201 -262.29629433 224.1426938 -254.28466797 226.6328125 C-246.72344995 228.96215336 -239.10369702 230.9700747 -231.43676758 232.91821289 C-223.69871806 234.90514262 -216.08135914 237.20191726 -208.45507812 239.57763672 C-200.67000028 241.98091416 -192.82123172 244.04093868 -184.92553711 246.04541016 C-177.08076214 248.06004289 -169.44003425 250.46424133 -161.8125 253.1875 C-162.06644531 252.59324219 -162.32039063 251.99898438 -162.58203125 251.38671875 C-163.09830078 250.14341797 -163.09830078 250.14341797 -163.625 248.875 C-164.0065625 247.9675 -164.388125 247.06 -164.78125 246.125 C-165.8125 243.1875 -165.8125 243.1875 -166.21875 240.25 C-166.6683954 237.06789411 -167.12268119 234.93680838 -168.8125 232.1875 C-172.41196884 230.37869891 -175.94433892 229.37613981 -179.8203125 228.34375 C-190.17020085 225.5547691 -198.36284161 218.61190531 -205.8125 211.1875 C-206.51117187 210.51203125 -207.20984375 209.8365625 -207.9296875 209.140625 C-216.28545234 200.49224583 -222.23181255 188.9178975 -224.8125 177.1875 C-224.98305908 176.42783936 -225.15361816 175.66817871 -225.3293457 174.88549805 C-228.89626261 154.96735819 -224.93428095 134.97067872 -213.54443359 118.33544922 C-202.05708814 102.80127973 -184.66489488 91.8452737 -165.52734375 88.63671875 C-144.67223842 86.11480801 -125.04394415 91.28816459 -108.3125 104.125 C-96.48093888 114.35395836 -88.18710974 127.12963279 -83.8125 142.1875 C-83.47605469 143.32832031 -83.47605469 143.32832031 -83.1328125 144.4921875 C-78.64593731 162.74700849 -82.40937401 181.83704096 -91.703125 197.8671875 C-94.08006715 201.60867052 -96.6645003 204.99339967 -99.66015625 208.2578125 C-101.05720321 210.14188334 -101.05720321 210.14188334 -100.50714111 212.442276 C-99.76474971 215.37620931 -98.85386908 218.18523726 -97.85058594 221.04077148 C-97.44636414 222.19645126 -97.04214233 223.35213104 -96.62567139 224.54283142 C-96.18716858 225.78553299 -95.74866577 227.02823456 -95.296875 228.30859375 C-94.83917638 229.61302508 -94.38176355 230.91755671 -93.92462158 232.22218323 C-92.71955611 235.65867689 -91.51041769 239.09372408 -90.30047607 242.52850342 C-89.32693249 245.29421746 -88.35613302 248.06089048 -87.38552475 250.82763577 C-82.89549399 263.62657941 -78.38475092 276.41767798 -73.8125 289.1875 C-70.16985823 289.1875 -67.71481153 285.54503209 -65.1875 283.125 C-63.83598585 281.84630307 -62.48442156 280.56765911 -61.1328125 279.2890625 C-60.42801758 278.61907227 -59.72322266 277.94908203 -58.99707031 277.25878906 C-55.37020304 273.81999359 -51.71398204 270.4126118 -48.0625 267 C-46.73374189 265.75718696 -45.40557451 264.51374191 -44.078125 263.26953125 C-43.51899414 262.74593018 -42.95986328 262.2223291 -42.38378906 261.68286133 C-41.30154969 260.65291786 -40.25254371 259.58728712 -39.23339844 258.49487305 C-37.8125 257.1875 -37.8125 257.1875 -35.8125 257.1875 C-36.1425 198.7775 -36.4725 140.3675 -36.8125 80.1875 C-39.7825 78.8675 -42.7525 77.5475 -45.8125 76.1875 C-57.19596422 69.96590694 -63.3427912 61.2767124 -67.8125 49.1875 C-70.57493561 36.5069221 -69.26725579 24.6915997 -62.6875 13.5625 C-56.04157925 3.72542733 -47.18800223 -2.57548449 -35.95703125 -6.453125 C-23.27776592 -8.57788349 -10.94579362 -6.86181684 0 0 Z " fill="#000000" transform="translate(913.8125,187.8125)"/>
<path d="M0 0 C8.31499435 5.88606231 13.46105544 14.64339055 16.25 24.3125 C17.39046476 37.64260762 15.25629319 48.5040042 7.25 59.3125 C0.83565467 66.54270504 -8.85472497 71.88924949 -18.55859375 72.5859375 C-31.06469962 72.97879235 -40.23140432 71.4039139 -50.125 63.125 C-58.68490533 54.83989099 -63.75099416 44.86396605 -64.1875 32.9375 C-63.85911698 20.68738545 -58.32956301 10.48373185 -49.625 2.0625 C-34.78527099 -10.26285632 -16.0239272 -9.65199642 0 0 Z " fill="#FDFDFD" transform="translate(1365.75,554.6875)"/>
<path d="M0 0 C0.6703125 0.3403125 1.340625 0.680625 2.03125 1.03125 C12.37533324 6.91942046 18.9331412 15.68857327 22.6484375 26.96875 C24.69034686 38.7664485 22.42702752 49.99737266 16 60 C9.43814102 68.13717892 1.4600015 74.09478544 -9 76 C-21.77498467 76.8100562 -31.83950357 76.0358965 -42.12890625 67.671875 C-50.45396721 60.2331984 -56.01277212 51.43058538 -57.51171875 40.1484375 C-57.85769754 28.43287982 -54.99744368 18.67128594 -47 10 C-34.77355045 -2.36255103 -16.49888351 -8.3846785 0 0 Z " fill="#FDFDFD" transform="translate(552,551)"/>
<path d="M0 0 C7.99463572 5.56280736 14.85278615 13.31748242 17.38671875 22.875 C19.3352772 35.9503735 18.45797741 47.4630192 10.6171875 58.3671875 C2.84105628 67.69195502 -5.97301715 72.89545677 -18.16796875 74.05859375 C-26.16897852 74.41282972 -33.10871698 73.65660561 -40.1953125 69.6796875 C-41.36320312 69.04353516 -41.36320312 69.04353516 -42.5546875 68.39453125 C-51.17413418 63.20261622 -57.95016154 54.57439457 -60.72583008 44.81420898 C-62.84749025 35.16799219 -62.38619289 23.1878169 -57.1953125 14.6796875 C-51.66134577 6.04899327 -44.0221186 -1.13585202 -34.2578125 -4.66015625 C-22.52519856 -7.18925288 -10.36270929 -6.23237676 0 0 Z " fill="#FDFDFD" transform="translate(1139.1953125,314.3203125)"/>
<path d="M0 0 C7.99545046 5.56337428 14.88840224 13.33607085 17.38671875 22.91015625 C19.32456053 35.75062189 18.36550978 47.69015244 10.6171875 58.4296875 C2.79794088 67.69019356 -5.9881078 72.8968961 -18.16796875 74.05859375 C-26.16897852 74.41282972 -33.10871698 73.65660561 -40.1953125 69.6796875 C-41.36320313 69.04353516 -41.36320313 69.04353516 -42.5546875 68.39453125 C-51.95165479 62.73427746 -57.43009259 54.17949099 -60.77734375 43.890625 C-62.85684544 32.89064412 -61.62118182 21.80006275 -55.6875 12.25390625 C-42.64476336 -5.79360142 -19.46790317 -11.70845422 0 0 Z " fill="#FDFDFD" transform="translate(781.1953125,314.3203125)"/>
<path d="M0 0 C6.91618831 3.89721722 11.39166916 9.28473052 13.6875 16.9375 C14.80795571 25.01723059 13.29367778 31.21101817 8.6875 37.9375 C3.50090676 43.35984748 -3.28241254 47.0870053 -10.875 47.375 C-17.98189326 46.99184575 -23.53345541 44.47287177 -28.7734375 39.6875 C-33.75024021 34.02859743 -35.74970519 27.10950632 -35.65234375 19.69921875 C-34.8620769 13.27716513 -31.68067418 7.83631048 -26.9375 3.5 C-18.66917818 -2.7633425 -9.55364074 -4.35956799 0 0 Z " fill="#FAFAFA" transform="translate(1191.3125,486.0625)"/>
<path d="M0 0 C5.08695622 3.92119542 9.01312754 8.1159982 11 14.3125 C11.90736637 21.68604562 11.66762438 28.05868229 7.55078125 34.37890625 C2.86320245 40.22362037 -2.7208752 44.50993035 -10.3125 45.6640625 C-17.15748084 46.07048324 -22.39983161 44.21479489 -28 40.3125 C-33.11573065 35.62229223 -36.56391677 31.11330961 -37.37109375 24.078125 C-37.51792435 16.30474023 -37.18172687 10.37860813 -32 4.3125 C-22.48884679 -4.56585471 -11.58031292 -6.51392602 0 0 Z " fill="#FBFBFB" transform="translate(710,487.6875)"/>
<path d="M0 0 C6.85409126 3.77653126 10.62353595 9.0908219 14.06640625 15.9765625 C14.78716796 24.98608393 13.95234672 31.6476518 8.94140625 39.1640625 C4.62600004 43.81044381 -0.0149974 46.59253666 -6.34765625 47.42578125 C-14.72251062 47.6858142 -20.71235602 46.92086018 -26.8984375 41.140625 C-33.35724566 34.24594635 -34.52846716 27.79124164 -34.37109375 18.45703125 C-33.45693434 11.18456667 -29.344044 6.86386547 -23.74609375 2.4765625 C-16.95881389 -2.34280781 -7.78748147 -2.71680445 0 0 Z " fill="#FCFCFC" transform="translate(1338.93359375,373.0234375)"/>
<path d="M0 0 C5.91428628 3.43260537 10.88673231 8.94533961 13.9296875 15.03125 C15.33555935 22.84164915 15.02373107 28.77690294 11.1171875 35.82421875 C7.38878286 41.17483791 2.74197352 45.16640781 -3.5078125 47.15625 C-11.47219047 48.00212187 -18.89022874 47.65499416 -25.41015625 42.71484375 C-30.67913697 37.91372178 -33.90398613 32.51998487 -34.88671875 25.41796875 C-35.20414582 18.0147503 -33.61445752 12.89475503 -28.89453125 7.21484375 C-21.15410493 -1.00614119 -10.98718228 -3.69662208 0 0 Z " fill="#FCFCFC" transform="translate(558.5078125,372.84375)"/>
<path d="M0 0 C4.72533424 3.62378573 9.26487286 8.32239971 11.4375 13.9375 C12.35570113 23.72767049 11.78819974 30.79343848 5.75 38.625 C1.64492175 43.08136856 -2.38648756 45.56083006 -8.4609375 46.28125 C-16.11973683 46.51275023 -21.71040175 45.35625937 -28.25 41.25 C-33.5022053 35.9977947 -36.68585908 30.2323675 -36.8125 22.75 C-36.70943215 14.92715043 -34.66987872 9.21265049 -29.265625 3.48046875 C-21.69503974 -3.37820368 -9.05931113 -5.27150667 0 0 Z " fill="#FCFCFC" transform="translate(1000.5625,203.0625)"/>
<path d="M0 0 C5.9970073 3.59820438 11.53849792 7.7104294 13.67578125 14.66796875 C15.15396611 21.93035526 14.85972956 29.26918475 11.45703125 35.90625 C9.18349646 39.26654775 6.44615537 41.58758173 3.125 43.875 C2.238125 44.49375 1.35125 45.1125 0.4375 45.75 C-6.51325542 48.11063391 -14.41014189 47.87194941 -21.13671875 44.8359375 C-27.89371096 41.10061147 -31.52236486 36.2220004 -33.875 28.875 C-34.98701148 21.47653649 -34.55634309 15.16597207 -30.43359375 8.8125 C-22.92790933 -0.51787462 -11.68595283 -4.48846824 0 0 Z " fill="#FCFCFC" transform="translate(898.875,202.125)"/>
</svg>
