<svg xmlns="http://www.w3.org/2000/svg" viewBox="0 0 200 200" fill="none">
  <rect width="200" height="200" rx="100" fill="#ffffff"/>
  <g transform="translate(40,40) scale(0.6)" fill="#000000">
    <path d="M70 120c-6 0-10-4-10-10v-8H50c-6 0-10-4-10-10 0-6 4-10 10-10h10V72c0-8 6-14 14-14h2c8 0 14 6 14 14v10h10c6 0 10 4 10 10 0 6-4 10-10 10h-10v8c0 6-4 10-10 10h-20z" />
    <path d="M50 40c-6 0-10-4-10-10s4-10 10-10 10 4 10 10-4 10-10 10zM90 20c-6 0-10-4-10-10s4-10 10-10 10 4 10 10-4 10-10 10zM130 40c-6 0-10-4-10-10s4-10 10-10 10 4 10 10-4 10-10 10z" />
    <rect x="0" y="120" width="140" height="12" rx="3" />
  </g>
</svg>
